<svg width="111" height="56" viewBox="0 0 111 56" fill="none" xmlns="http://www.w3.org/2000/svg">
<path class='shadow' d="M104 0.500004C107.866 0.500004 111.045 3.64623 110.559 7.48152C109.939 12.3709 108.669 17.1664 106.775 21.7389C103.986 28.4725 99.8981 34.5908 94.7444 39.7444C89.5908 44.8981 83.4725 48.9862 76.7389 51.7753C70.0054 54.5645 62.7884 56 55.5 56C48.2116 56 40.9946 54.5645 34.2611 51.7753C27.5275 48.9862 21.4092 44.8981 16.2556 39.7444C11.1019 34.5908 7.01382 28.4725 4.22469 21.7389C2.33067 17.1664 1.06084 12.3709 0.440865 7.48151C-0.0454526 3.64623 3.13401 0.5 7 0.5L55.5 0.500004H104Z" fill="#C1EB98"/>
<path d="M98 0.500004C98.5523 0.500004 99.0012 0.9478 98.9885 1.49994C98.865 6.87173 97.7472 12.1772 95.6888 17.1467C93.5027 22.4244 90.2985 27.2198 86.2591 31.2591C82.2198 35.2985 77.4244 38.5027 72.1467 40.6888C66.8691 42.8748 61.2125 44 55.5 44C49.7875 44 44.1309 42.8748 38.8533 40.6888C33.5756 38.5027 28.7802 35.2985 24.7409 31.2591C20.7015 27.2198 17.4973 22.4244 15.3112 17.1467C13.2528 12.1772 12.135 6.87173 12.0115 1.49994C11.9988 0.947797 12.4477 0.5 13 0.500001L55.5 0.500004H98Z" fill="#EA6776"/>
<path d="M58.1503 27.6172H51.7519V21.2188H45.0956V14.8438H51.7519V7.92969H58.1503V14.8438H64.7831V21.2188H58.1503V27.6172Z" fill="#4C4952"/>
</svg>
