<svg width="56" height="57" viewBox="0 0 56 57" fill="none" xmlns="http://www.w3.org/2000/svg">
<path d="M0.142853 6.6087C0.142853 3.29499 2.83685 0.575207 6.13124 0.932461C11.4112 1.50503 16.5933 2.83306 21.5185 4.88469C28.2954 7.7077 34.453 11.8454 39.6398 17.0617C44.8266 22.2779 48.941 28.4705 51.7481 35.2858C53.7925 40.2493 55.1143 45.4724 55.6817 50.7938C56.033 54.0889 53.3137 56.7826 50 56.7826L6.14285 56.7826C2.82914 56.7826 0.142853 54.0963 0.142853 50.7826V6.6087Z" fill="#C1EB98"/>
<path d="M0 17C0 13.6863 2.69749 10.9598 5.98305 11.3908C9.96746 11.9134 13.8749 12.9571 17.6034 14.5015C23.1844 16.8133 28.2554 20.2016 32.5269 24.4731C36.7984 28.7446 40.1867 33.8156 42.4985 39.3966C44.0429 43.1251 45.0866 47.0325 45.6092 51.017C46.0403 54.3025 43.3137 57 40 57H6C2.68629 57 0 54.3137 0 51V17Z" fill="#EA6776"/>
<path d="M18 28C11.928 28 7 32.928 7 39C7 45.072 11.928 50 18 50C24.072 50 29 45.072 29 39C29 32.928 24.072 28 18 28ZM23.5 40.1H12.5V37.9H23.5V40.1Z" fill="#4C4952"/>
</svg>
