<svg width="531" height="126" viewBox="0 0 531 126" fill="none" xmlns="http://www.w3.org/2000/svg">
<g clip-path="url(#clip0_12_359)">
<path d="M579 -154C579 0.639725 438.641 126 265.5 126C92.3587 126 -48 0.639725 -48 -154C-48 -308.64 92.3587 -434 265.5 -434C438.641 -434 579 -308.64 579 -154Z" fill="#C1EB98"/>
<path d="M520 -154C520 -28.6314 406.056 73 265.5 73C124.944 73 11 -28.6314 11 -154C11 -279.369 124.944 -381 265.5 -381C406.056 -381 520 -279.369 520 -154Z" fill="#EA6776"/>
<path d="M212.256 47.0738C213.11 48.8079 212.397 50.906 210.663 51.7601C208.929 52.6142 206.831 51.9008 205.977 50.1667C205.123 48.4327 203.406 41.4006 205.14 40.5465C206.874 39.6924 211.402 45.3397 212.256 47.0738Z" fill="#202026"/>
<path d="M242.725 29.6761C242.149 31.5214 240.187 32.5507 238.341 31.9752C236.496 31.3996 235.467 29.4371 236.042 27.5918C236.618 25.7465 240.218 19.4666 242.063 20.0421C243.908 20.6177 243.3 27.8307 242.725 29.6761Z" fill="#202026"/>
<path d="M121.477 13.0324C121.35 14.9612 119.683 16.4216 117.754 16.2942C115.825 16.1668 114.365 14.5 114.492 12.5712C114.62 10.6424 116.649 3.69398 118.578 3.82135C120.507 3.94872 121.605 11.1036 121.477 13.0324Z" fill="#202026"/>
<path d="M171.256 36.0738C172.11 37.8079 171.397 39.906 169.663 40.7601C167.929 41.6142 165.831 40.9008 164.977 39.1667C164.123 37.4327 162.406 30.4006 164.14 29.5465C165.874 28.6924 170.402 34.3397 171.256 36.0738Z" fill="#202026"/>
<path d="M140.529 26.9753C139.954 28.8206 137.991 29.8499 136.146 29.2744C134.3 28.6988 133.271 26.7363 133.847 24.891C134.422 23.0457 138.022 16.7658 139.868 17.3413C141.713 17.9169 141.105 25.1299 140.529 26.9753Z" fill="#202026"/>
<path d="M198.215 26.4417C198.088 28.3705 196.421 29.8308 194.492 29.7035C192.564 29.5761 191.103 27.9092 191.231 25.9804C191.358 24.0516 193.387 17.1033 195.316 17.2306C197.245 17.358 198.343 24.5129 198.215 26.4417Z" fill="#202026"/>
<path d="M380.578 -4.5C379.704 -2.72595 380.434 -0.579447 382.208 0.294342C383.982 1.16813 386.129 0.438298 387.003 -1.33575C387.876 -3.10981 389.633 -10.304 387.859 -11.1778C386.085 -12.0516 381.452 -6.27405 380.578 -4.5Z" fill="#202026"/>
<path d="M285.742 26.9222C286.33 28.8101 288.338 29.8632 290.226 29.2744C292.114 28.6855 293.167 26.6778 292.578 24.7899C291.989 22.902 288.306 16.4773 286.418 17.0662C284.53 17.655 285.153 25.0343 285.742 26.9222Z" fill="#202026"/>
<path d="M400.461 18.7078C400.591 20.6811 402.296 22.1751 404.27 22.0448C406.243 21.9145 407.737 20.2092 407.607 18.2359C407.476 16.2627 405.4 9.15406 403.427 9.28436C401.454 9.41467 400.331 16.7346 400.461 18.7078Z" fill="#202026"/>
<path d="M338.582 27.26C337.708 29.034 338.438 31.1805 340.212 32.0543C341.986 32.9281 344.133 32.1983 345.007 30.4242C345.88 28.6502 347.637 21.4559 345.863 20.5822C344.089 19.7084 339.456 25.4859 338.582 27.26Z" fill="#202026"/>
<path d="M312.742 46.9222C313.33 48.8101 315.338 49.8632 317.226 49.2744C319.114 48.6855 320.167 46.6778 319.578 44.7899C318.989 42.902 315.306 36.4773 313.418 37.0662C311.53 37.655 312.153 45.0343 312.742 46.9222Z" fill="#202026"/>
<path d="M373.742 39.9222C374.33 41.8101 376.338 42.8632 378.226 42.2744C380.114 41.6855 381.167 39.6778 380.578 37.7899C379.989 35.902 376.306 29.4773 374.418 30.0662C372.53 30.655 373.153 38.0343 373.742 39.9222Z" fill="#202026"/>
<path d="M255.607 47.6594C255.737 49.6327 257.442 51.1267 259.416 50.9964C261.389 50.8661 262.883 49.1608 262.753 47.1875C262.622 45.2142 260.546 38.1056 258.573 38.2359C256.6 38.3662 255.476 45.6861 255.607 47.6594Z" fill="#202026"/>
</g>
<defs>
<clipPath id="clip0_12_359">
<rect width="531" height="126" fill="white"/>
</clipPath>
</defs>
</svg>
